<svg width="166.2mm" height="76.423mm" version="1.1" viewBox="0 0 166.2 76.423" xmlns="http://www.w3.org/2000/svg">
			<g transform="translate(-25.4 -115.89)">
						<path d="m49.392 116.36c-5.9507-0.75076-12.407-0.93541-17.805 2.0859-3.5811 2.0737-5.7613 6.0624-6.0582 10.137-0.71781 6.3892 1.7612 12.499 2.632 18.736 0.99356 5.8129 1.7628 11.936 4.9956 17.013 3.0215 4.5363 7.955 7.2565 12.853 9.3321 4.477 1.9147 9.0345 3.71 13.76 4.9107 6.4908 1.5162 13.634 0.89601 19.407-2.6 5.3856-3.0967 9.3184-8.0804 12.677-13.195 2.8541-3.928 6.3386-7.8446 11.114-9.3459 3.0303-0.84887 6.3786 0.34221 8.3677 2.7384 3.6367 3.9352 4.9326 9.303 6.2177 14.348 1.5978 5.6785 4.6159 11.214 9.597 14.591 4.9048 3.4488 10.76 5.2636 16.589 6.3976 5.6478 0.80669 11.431 1.166 17.094 0.322 4.3468-0.77806 8.2161-3.3441 10.969-6.7527 5.607-6.4773 9.1797-14.351 14.006-21.372 2.4279-3.8513 5.1218-7.815 5.7232-12.433 0.37907-2.6519-0.8441-5.329-2.9599-6.9313-3.552-2.7345-8.0177-3.8492-12.283-4.9496-5.5004-1.272-11.088-2.128-16.644-3.1057-6.4635-0.79931-12.969-1.3853-19.483-1.4581-4.9318 0.23338-9.8303 0.89974-14.746 1.3399-7.5875 0.78645-15.498 1.2872-22.817-1.3057-6.0732-2.0952-11.697-5.2626-17.665-7.6224-11.297-4.7469-22.939-9.0167-35.11-10.825l-0.2147-0.0282zm-10.916 3.6325c1.0865 1.009 1.5646 3.1385-0.52575 3.1732-1.1558 0.57626-3.4592 0.62651-2.0893 2.3304 0.52157 1.4039 1.9798 3.6417-0.49382 3.8193-1.1331 0.7529-1.3441-0.87026-1.6705-1.6098-0.48136-1.2497-0.91091-2.5244-1.5314-3.7044-1.4226-2.2299 2.1331-2.0812 3.3613-2.9287 0.97721-0.37582 1.9565-0.7474 2.9496-1.0798zm19.283 5.4697c8.5775 0.54848 17.257 2.6477 24.558 7.321 3.2824 2.141 6.1518 5.3758 6.6863 9.3882 1.0676 6.2296-0.72353 12.583-3.3885 18.185-2.4958 5.035-6.0426 9.9264-11.215 12.439-4.8794 2.1397-10.416 1.9137-15.565 1.0718-6.3413-1.1736-12.717-3.483-17.545-7.8875-5.76-5.6777-8.1619-14.146-7.547-22.082 0.48953-5.6494 2.7546-11.472 7.2954-15.072 3.7973-2.7249 8.6373-3.2329 13.175-3.433 1.1825-0.0242 2.3656 8e-3 3.5465 0.0694zm88.053 15.896c7.385 0.67429 14.937 2.0434 21.439 5.7843 2.8091 1.6692 4.9514 4.4006 5.7436 7.5861 1.7579 6.1669 0.72589 12.784-1.3269 18.745-1.8754 5.2279-4.8313 10.363-9.5044 13.55-2.3765 1.6062-5.2676 2.1282-8.0891 2.1238-13.537 0.48895-27.242-7.3536-33.007-19.732-2.8625-6.1614-3.22-13.717 0.15502-19.757 1.4802-2.662 3.3819-5.4007 6.3307-6.5434 4.1048-1.7274 8.6572-1.8713 13.046-1.971 1.7396-7.9e-4 3.479 0.0736 5.2128 0.21352zm35.24 4.0759c1.4983 1.0893 2.6519 2.6033 4.1476 3.6801 1.1521 0.70694 1.5979 1.8845 0.19334 2.6377-1.3347 1.2921-2.5345 2.7207-3.9145 3.968-1.2526-0.36555-2.748-2.0953-0.96581-2.9816 0.80465-1.0387 3.0295-2.0835 1.0194-3.0938-1.0636-1.0529-3.3398-2.417-1.1984-3.6483 0.2315-0.19285 0.37407-0.54475 0.71835-0.56216z" stroke-width=".26458"/>
			</g>
</svg>
