<?xml version="1.0" encoding="UTF-8"?>
<svg width="1200pt" height="1200pt" version="1.1" viewBox="0 0 1200 1200" xmlns="http://www.w3.org/2000/svg">
 <path d="m1064.3 723.14-82.922-160.36c7.2188-3.7969 14.391-7.7812 21.469-12 4.0312-2.3906 6.5156-6.75 6.5156-11.438-0.09375-51.703-17.203-101.91-48.703-142.87-31.547-40.922-75.656-70.359-125.58-83.672 38.062-26.344 54.609-74.344 40.828-118.55-13.781-44.156-54.656-74.297-100.92-74.297-46.312-0.046875-87.234 30-101.06 74.203-13.828 44.156 2.6719 92.203 40.734 118.55-44.344 11.719-84.234 36.281-114.7 70.594-30.469-34.172-70.312-58.688-114.61-70.5 38.109-26.344 54.656-74.344 40.875-118.55-13.828-44.203-54.75-74.297-101.02-74.297-46.312 0-87.234 30.094-101.02 74.297s2.7656 92.203 40.828 118.55c-49.922 13.312-94.078 42.75-125.58 83.719-31.547 40.969-48.656 91.219-48.703 142.87 0 4.7344 2.4844 9.0938 6.5156 11.484 9.375 5.5781 18.984 10.781 28.781 15.656l-88.547 138.19c-10.969 17.156-6 39.938 11.156 50.953l71.297 45.656h-0.046876c5.9062 3.7969 12.797 5.8125 19.828 5.8125 2.6719 0 5.3438-0.28125 7.9688-0.89062 8.2031-1.7344 15.516-6.2344 20.766-12.75l32.812 41.062-16.453 25.688h-0.046876c-10.969 17.109-11.719 38.812-2.0156 56.672 9.7031 17.812 28.406 28.969 48.703 29.016 2.0625 0 4.0781-0.14062 6.0938-0.32812-0.65625 6-0.32812 12.094 0.98438 18 5.5312 25.453 28.031 43.688 54.141 43.734 3.3281 0 6.7031-0.32812 9.9844-0.9375 0 4.0312 0.46875 8.0625 1.3125 12 5.5312 25.5 28.031 43.734 54.141 43.781 4.0781 0 8.1094-0.46875 12.094-1.3594 9.8906-2.1094 19.031-6.8906 26.391-13.875 8.8594 20.062 28.734 33 50.672 33.047 4.0312 0 8.1094-0.42188 12.047-1.3125 14.438-3.0938 27.047-11.859 34.969-24.281l6-9.375 38.484 24.75v-0.046875c8.9531 5.7656 19.359 8.8125 29.953 8.8125 4.0781 0 8.1094-0.42188 12.094-1.3125 28.031-6.0469 46.922-32.438 43.5-60.984 5.7656 0.5625 11.578 0.1875 17.25-1.0781 26.484-5.6719 45-29.672 43.734-56.719 17.109 4.4062 35.297 0.46875 49.031-10.641 13.734-11.062 21.422-28.031 20.672-45.703 23.953 6.0938 49.078-4.2656 61.734-25.453 12.703-21.234 9.9375-48.234-6.7969-66.422l14.859-12.234c4.5938 7.6875 11.859 13.406 20.391 16.125 3.6562 1.1719 7.4531 1.7344 11.297 1.7344 5.8594 0 11.625-1.4062 16.781-4.125l75.188-38.859c18.094-9.375 25.172-31.594 15.844-49.734zm-368.53-497.34c-0.046874-32.016 19.266-60.938 48.844-73.219 29.578-12.281 63.656-5.4844 86.344 17.156 22.641 22.641 29.438 56.719 17.203 86.297-12.281 29.625-41.156 48.891-73.219 48.891-43.688 0-79.125-35.391-79.172-79.125zm79.125 105.8c53.766 0.09375 105.42 21 144.1 58.312 38.719 37.312 61.453 88.172 63.469 141.94-4.4062 2.5312-8.9062 4.9688-13.406 7.3125l-39.375-76.125c-9.375-18.094-31.594-25.172-49.688-15.844l-75.188 38.906c-17.719 9.1875-24.891 30.75-16.312 48.703l-8.9062 2.9531c-7.125 2.4375-14.672 3.5625-22.266 3.2812l-88.547-2.3906c-3.0938-0.09375-6.1875-0.046876-9.1875 0.1875v-0.046876c-0.046875-48.094-14.953-95.016-42.75-134.26 39.375-46.406 97.219-73.125 158.06-72.938zm112.97 462.28-134.72-86.344c-7.2656-4.6875-15.141-8.2969-23.438-10.688-24.234-8.2969-41.016-30.516-42.375-56.109-0.5625-4.2656-3.1406-8.0156-6.9375-10.031-3.8438-2.0156-8.3906-2.0625-12.234-0.09375-28.688 19.172-55.453 41.062-79.875 65.438-11.391 8.9062-26.484 11.438-40.125 6.7031-13.594-4.7812-23.906-16.125-27.234-30.188l60-53.438 0.375-0.32812 41.672-37.125h0.046875c12.234-11.297 28.453-17.25 45.094-16.453l88.594 2.4375c10.641 0.375 21.281-1.1719 31.359-4.5938l12.891-4.2656 111.23 215.06zm-541.78-568.08c-0.046875-32.016 19.219-60.938 48.844-73.219 29.578-12.281 63.656-5.4844 86.297 17.156 22.688 22.641 29.484 56.719 17.203 86.297-12.234 29.625-41.109 48.891-73.172 48.891-43.734 0-79.172-35.391-79.172-79.125zm-128.53 306c2.0156-53.719 24.75-104.58 63.469-141.94 38.719-37.312 90.328-58.219 144.14-58.266 55.078 0.046875 107.91 21.938 146.9 60.891 38.953 39 60.891 91.828 60.938 146.9 0 1.6406 0.32812 3.2812 0.89062 4.8281-10.5 4.0312-20.203 9.9844-28.594 17.531l-35.859 31.922-139.36-52.172c9.4219-16.969 3.9844-38.391-12.375-48.891l-71.25-45.656c-17.156-10.969-39.938-5.9531-50.953 11.156l-55.031 85.875c-7.7344-3.8438-15.422-7.875-22.922-12.141zm24.469 248.39h-0.046875c-2.625 0.60938-5.3906 0.14062-7.6875-1.3594l-71.25-45.609c-4.7344-3.0469-6.1406-9.375-3.0938-14.109l96.609-150.74 61.406-95.859c1.4531-2.2969 3.75-3.8906 6.4219-4.4531 0.75-0.14063 1.5-0.23438 2.25-0.23438 1.9219 0 3.7969 0.5625 5.4375 1.5938l71.297 45.656v0.046876c4.6875 3.0469 6.0938 9.3281 3.0469 14.109l-7.6406 11.906-140.58 219.42c-1.7812 1.5938-3.0938 3.6562-3.7969 5.9531l-6 9.2812c-1.4531 2.25-3.75 3.8906-6.4219 4.4531zm73.969 134.53c-13.453-8.6719-17.391-26.578-8.7656-40.078l40.641-63.422c4.125-6.4688 10.688-11.016 18.188-12.609 2.0625-0.46875 4.2188-0.70312 6.3281-0.70312 5.4844 0 10.875 1.5469 15.516 4.5469 13.453 8.625 17.391 26.578 8.7656 40.078l-40.641 63.422v-0.046875c-8.6719 13.453-26.578 17.344-40.078 8.8125zm61.219 61.406c-13.406-8.6719-17.344-26.578-8.7656-40.078l66.656-104.02c8.7188-13.266 26.484-17.062 39.891-8.4844 13.359 8.5312 17.391 26.297 8.9531 39.75l-66.703 104.06h0.046875c-8.6719 13.453-26.578 17.391-40.078 8.7656zm87.281 58.688c-11.438 2.4375-23.25-2.2031-29.953-11.812-6.6562-9.5625-6.9375-22.266-0.65625-32.156l12.984-20.25 59.578-92.906 7.4531-11.672 0.046875 0.046875c8.7188-13.219 26.484-16.969 39.797-8.3906 13.312 8.5312 17.344 26.203 9.0469 39.656l-25.312 39.516-31.547 49.266-23.203 36.047c-4.1719 6.4688-10.734 11.016-18.281 12.656zm67.266 13.969c-13.453-8.625-17.391-26.578-8.7656-40.031l36.844-57.469v-0.046875c6.3281-9.8906 17.953-14.953 29.531-12.891 11.531 2.0625 20.672 10.875 23.156 22.359 1.6875 7.5 0.32812 15.375-3.8438 21.844l-36.844 57.469c-8.625 13.5-26.578 17.391-40.078 8.7656zm361.69-185.02c-8.6719 13.547-26.719 17.484-40.266 8.8594l-23.766-15.234-77.672-49.781c-3-1.9219-6.6094-2.5781-10.078-1.8281-3.4219 0.75-6.4688 2.8594-8.3906 5.8594-3.9375 6.1875-2.1562 14.438 4.0312 18.422l77.672 49.781v-0.046875c13.266 8.8594 16.969 26.672 8.3906 40.031-8.625 13.406-26.344 17.438-39.891 9.0938l-23.719-15.188-52.547-34.406-0.046875-0.046875c-6.1406-3.9844-14.344-2.2031-18.375 3.8906-3.9844 6.1406-2.2969 14.344 3.7969 18.422l52.688 34.5c13.5 8.7188 17.484 26.719 8.9062 40.359-8.7188 13.5-26.719 17.438-40.266 8.8125l-14.859-9.5156-28.688-18.375c-2.9531-1.9219-6.5625-2.5781-10.031-1.8281s-6.4688 2.8594-8.3906 5.8594c-3.9844 6.1875-2.1562 14.438 4.0312 18.422l28.688 18.375c13.219 8.8125 16.922 26.578 8.3438 39.984-8.5312 13.359-26.25 17.438-39.797 9.1406l-38.531-24.75 16.406-25.641 0.046875-0.046875c10.828-16.922 11.719-38.438 2.25-56.203s-27.797-29.016-47.953-29.438c13.312-21.234 10.828-48.703-6.1406-67.172-16.922-18.469-44.109-23.344-66.375-11.906-3.7031-12.938-12-24.094-23.391-31.359-20.578-13.172-47.297-11.391-66 4.4062-8.0156-19.031-25.922-32.016-46.5-33.797-20.578-1.7344-40.453 8.0156-51.609 25.359l-8.9531 14.016-32.625-40.875 131.63-205.4 131.44 49.219-49.219 43.734h0.046875c-3.1406 2.8125-4.7812 6.8906-4.4531 11.109 2.1562 25.406 18.188 47.531 41.625 57.609 23.484 10.031 50.531 6.2812 70.406-9.7031l0.84375-0.75v0.046875c18.844-18.094 38.625-35.109 59.297-51 7.8281 27.656 29.203 49.359 56.672 57.609 5.9062 1.6875 11.484 4.2656 16.641 7.5938l145.92 93.469-0.046875 0.046875c13.547 8.6719 17.484 26.719 8.8125 40.266zm142.78-114.61-75.188 38.906h0.046875c-5.0156 2.5781-11.203 0.60938-13.781-4.3594l-6.4688-12.562v-0.09375l-119.77-231.37c-0.09375-0.51562-0.23438-0.98438-0.375-1.4531-0.60938-1.7812-1.5938-3.4219-2.8594-4.7812l-5.1094-9.8438c-2.5781-5.0156-0.60938-11.203 4.4062-13.781l75.188-38.859v-0.046875c1.4531-0.75 3.0469-1.125 4.6875-1.125 3.7969 0 7.3125 2.1094 9.0938 5.5312l134.53 260.11c2.5781 5.0156 0.60938 11.156-4.3594 13.781z"/>
</svg>
