<?xml version="1.0" encoding="UTF-8"?>
<svg width="1200pt" height="1200pt" version="1.1" viewBox="0 0 1200 1200" xmlns="http://www.w3.org/2000/svg">
 <path d="m1034.3 242.63c-60.984-60.938-160.18-60.938-221.16 0-60.984 60.984-60.984 160.18 0 221.16l97.312 97.359c3.5156 3.5156 8.2969 5.4844 13.266 5.4844s9.75-1.9688 13.266-5.4844l97.312-97.359c29.484-29.438 45.703-68.672 45.703-110.58 0-41.859-16.219-81.141-45.703-110.58zm-26.531 194.63-84.047 84.094-84.047-84.094c-46.359-46.359-46.359-121.74 0-168.1 23.156-23.156 53.625-34.781 84.047-34.781s60.891 11.578 84.047 34.781c22.359 22.359 34.688 52.172 34.688 84.047 0 31.828-12.281 61.688-34.688 84.047zm-84-180.37c-45.094 0-81.75 36.656-81.75 81.75s36.656 81.75 81.75 81.75 81.797-36.656 81.797-81.75-36.703-81.75-81.797-81.75zm0 125.95c-24.375 0-44.203-19.828-44.203-44.203s19.828-44.203 44.203-44.203c24.422 0 44.25 19.828 44.25 44.203 0 24.328-19.875 44.203-44.25 44.203zm-521.02 294.1c-3.375-5.7656-9.5625-9.3281-16.219-9.3281h-205.64c-6.7031 0-12.844 3.5625-16.219 9.3281l-42.094 72.469c-1.6875 2.8594-2.5781 6.1406-2.5781 9.4219v225.52c0 10.359 8.3906 18.75 18.75 18.75h289.82c10.359 0 18.75-8.3906 18.75-18.75v-225.52c0-3.2812-0.89062-6.5625-2.5312-9.4219zm-6.75 63.141h-49.453l-6.6094-34.969h35.812zm-140.9 37.547h57.141v37.547h-57.141zm46.641-72.516 6.6094 34.969h-49.359l6.6562-34.969zm-110.06 0h35.812l-6.7031 34.969h-49.453zm-34.125 260.48v-187.97h60.047v56.297c0 10.359 8.3906 18.75 18.75 18.75h94.641c10.359 0 18.75-8.3906 18.75-18.75v-56.297h60.047v187.97zm738.79-286.26c0 56.578-46.031 102.56-102.56 102.56h-274.82c-10.359 0-18.75-8.3906-18.75-18.75s8.3906-18.75 18.75-18.75h274.78c35.859 0 65.062-29.203 65.062-65.062s-29.203-65.016-65.062-65.016l-186.84 0.046875h-282.94c-56.578 0-102.56-45.984-102.56-102.52 0-56.578 46.031-102.56 102.56-102.56h370.82c10.359 0 18.75 8.3906 18.75 18.75s-8.3906 18.75-18.75 18.75h-370.82c-35.859 0-65.062 29.203-65.062 65.062s29.203 65.016 65.062 65.016h469.74c56.625-0.046875 102.66 45.938 102.66 102.47z"/>
</svg>
