<?xml version="1.0" encoding="UTF-8"?>
<svg width="1200pt" height="1200pt" version="1.1" viewBox="0 0 1200 1200" xmlns="http://www.w3.org/2000/svg">
 <path d="m206.29 1050h-112.55c-10.312 0-18.703-8.4375-18.703-18.75v-937.5c0-10.359 8.3906-18.797 18.703-18.797h611.86c5.4375 0 10.594 2.3438 14.156 6.4219l138.14 158.86c2.9062 3.3281 4.6406 7.6406 4.6406 12.328v39.844l126 131.16c3.3281 3.5156 5.25 8.1562 5.25 12.984v161.06l21.844-11.297c6.7031-3.4688 14.812-2.625 20.625 2.25 26.391 21.984 48.047 49.172 63.656 79.828 3.4219 6.7031 2.4375 14.859-2.3906 20.625l-26.906 31.781c3.6094 11.203 6.2344 22.688 7.875 34.266l38.016 16.969c6.8906 3.1406 11.25 10.031 11.062 17.578-0.79688 34.359-8.4844 68.203-22.688 99.516-3.1406 6.8906-10.078 11.203-17.625 10.969 0 0-41.625-1.1719-41.578-1.1719-6.5156 9.7969-13.875 19.031-21.984 27.516l10.406 40.312c1.875 7.3125-0.75 15-6.7969 19.594-10.641 8.0625-21.844 15.328-33.516 21.609v98.297c0 10.312-8.4375 18.703-18.797 18.703h-749.95c-10.359 0-18.75-8.3906-18.75-18.703zm159.32-937.55h-253.08v900h253.08zm320.44 0h-282.94v900h358.22c-14.906-7.2656-29.062-15.984-42.328-26.109-6-4.5938-8.6719-12.281-6.7969-19.594l10.406-40.312c-8.0625-8.5312-15.375-17.719-21.938-27.516l-41.578 1.1719c-7.5469 0.23438-14.484-4.0781-17.625-10.969-14.203-31.312-21.938-65.156-22.688-99.516-0.1875-7.5469 4.2188-14.438 11.109-17.578l37.969-16.969c1.6406-11.578 4.2656-23.062 7.8281-34.266l-26.859-31.781c-4.875-5.7656-5.8125-13.922-2.3906-20.625 15.609-30.656 37.266-57.844 63.656-79.828 5.8125-4.875 13.922-5.7188 20.625-2.25 0 0 36.984 19.078 36.938 19.078 10.125-5.9531 20.766-11.062 31.734-15.234l8.1094-40.828c1.4531-7.4062 7.2188-13.172 14.625-14.719 0.9375-0.1875 1.9219-0.375 2.9062-0.5625v-262.78h-120.24c-10.359 0-18.75-8.3438-18.75-18.703zm116.53 121.36-79.031-90.938v90.938zm59.953 112.73v93.516h89.859zm93.75 247.45v-116.48h-93.75v52.125c20.625-0.84375 41.344 0.79688 61.688 4.9688 7.3594 1.5469 13.172 7.3125 14.625 14.719l8.0625 40.828c3.1875 1.1719 6.2812 2.4375 9.375 3.8438zm37.5 370.26c0.23438-0.23438 0.5625-0.32813 0.79688-0.5625l-9.8438-38.25c-1.6875-6.5625 0.28125-13.594 5.2031-18.328 1.3125-1.1719 2.5781-2.4375 3.8438-3.7031 9.8438-9.8906 18.422-21 25.547-33.094 3.4688-5.8125 9.8438-9.4219 16.688-9.1875l39.469 1.125c7.5938-19.594 12.281-40.219 13.969-61.172l-36.047-16.125c-6.2344-2.7656-10.453-8.7188-11.016-15.516-1.3594-15.703-4.9219-31.219-10.5-45.938-2.4375-6.375-1.1719-13.547 3.2344-18.797l25.453-30.141c-10.594-18.188-23.766-34.688-39.141-49.078l-35.109 18.141c-6 3.1406-13.312 2.7188-18.984-1.0312-3.6094-2.3906-7.3125-4.7344-11.062-6.8438-9.9844-5.5781-20.484-10.172-31.359-13.594-6.4688-2.1094-11.344-7.5469-12.656-14.203l-7.6875-38.719c-13.969-2.0625-28.078-2.7188-42.047-2.0625-6.9375 0.32813-13.875 0.98438-20.766 2.0625l-7.6875 38.719c-1.0312 5.3906-4.4062 9.9375-9.0469 12.609-1.125 0.65625-2.3438 1.1719-3.6094 1.5938-15.047 4.7812-29.297 11.672-42.422 20.438-5.7188 3.75-12.984 4.1719-19.031 1.0312 0 0-35.062-18.141-35.109-18.141-15.328 14.391-28.547 30.891-39.141 49.078l25.547 30.141c4.3594 5.25 5.5781 12.422 3.1875 18.797-5.625 14.719-9.1406 30.234-10.5 45.938-0.5625 6.7969-4.7812 12.75-11.016 15.516 0 0-36.047 16.078-36.047 16.125 1.6406 20.953 6.375 41.578 13.969 61.172l39.469-1.125c6.7969-0.23438 13.219 3.375 16.641 9.1875 8.0156 13.594 17.906 26.016 29.391 36.797 4.9219 4.7344 6.9844 11.766 5.25 18.328l-9.8438 38.25c17.438 11.766 36.469 20.953 56.531 27.188l23.719-31.5c4.0781-5.4844 10.875-8.2969 17.578-7.2656 4.3125 0.5625 8.625 0.98438 12.938 1.2656 11.391 0.70312 22.828 0.23437 34.172-1.2656 6.7969-1.0312 13.5 1.7812 17.625 7.2656 0 0 23.719 31.5 23.719 31.5 6.1875-1.9219 12.234-4.0781 18.234-6.5625 13.078-5.4375 25.641-12.188 37.5-20.062zm-750.05 85.734v37.453h712.55v-63.047c-6.8906 2.3906-13.875 4.4531-20.953 6.2344-7.3125 1.8281-15.047-0.89063-19.547-6.8906l-25.031-33.328c-9.375 0.79687-18.844 1.0312-28.219 0.5625v40.266c0 10.312-8.3906 18.75-18.797 18.75zm215.63-506.29c-10.359 0-18.75-8.3906-18.75-18.75s8.3906-18.703 18.75-18.703h300.05c10.312 0 18.703 8.3438 18.703 18.703s-8.3906 18.75-18.703 18.75zm0 150.05c-10.359 0-18.75-8.4375-18.75-18.797s8.3906-18.75 18.75-18.75h159.37c10.406 0 18.797 8.3906 18.797 18.75s-8.3906 18.797-18.797 18.797zm0 75c-10.359 0-18.75-8.4375-18.75-18.797 0-10.312 8.3906-18.75 18.75-18.75h140.68c10.312 0 18.703 8.4375 18.703 18.75 0 10.359-8.3906 18.797-18.703 18.797zm0-450.05c-10.359 0-18.75-8.3906-18.75-18.703 0-10.359 8.3906-18.797 18.75-18.797h187.55c10.359 0 18.75 8.4375 18.75 18.797 0 10.312-8.3906 18.703-18.75 18.703zm0-74.953c-10.359 0-18.75-8.4375-18.75-18.75 0-10.359 8.3906-18.797 18.75-18.797h187.55c10.359 0 18.75 8.4375 18.75 18.797 0 10.312-8.3906 18.75-18.75 18.75zm0 224.95c-10.359 0-18.75-8.4375-18.75-18.75 0-10.359 8.3906-18.703 18.75-18.703h300.05c10.312 0 18.703 8.3438 18.703 18.703 0 10.312-8.3906 18.75-18.703 18.75zm-290.58 431.29c-10.359 0-18.797-8.4375-18.797-18.797 0-10.312 8.4375-18.75 18.797-18.75h131.26c10.359 0 18.75 8.4375 18.75 18.75 0 10.359-8.3906 18.797-18.75 18.797zm140.58-693.79v112.5c0 10.406-8.3906 18.75-18.703 18.75h-112.55c-10.359 0-18.75-8.3438-18.75-18.75v-112.5c0-10.359 8.3906-18.75 18.75-18.75h112.55c10.312 0 18.703 8.3906 18.703 18.75zm-37.5 18.797h-74.953v75h74.953zm37.5 206.26v112.45c0 10.359-8.3906 18.797-18.703 18.797h-112.55c-10.359 0-18.75-8.4375-18.75-18.797v-112.45c0-10.359 8.3906-18.797 18.75-18.797h112.55c10.312 0 18.703 8.4375 18.703 18.797zm-37.5 18.703h-74.953v75h74.953zm37.5 206.26v112.55c0 10.312-8.3906 18.703-18.703 18.703h-112.55c-10.359 0-18.75-8.3906-18.75-18.703v-112.55c0-10.359 8.3906-18.703 18.75-18.703h112.55c10.312 0 18.703 8.3438 18.703 18.703zm-37.5 18.75h-74.953v75h74.953zm553.18 231.32c-50.672-19.453-86.719-68.484-86.719-125.95 0-57.422 36.047-106.55 86.719-125.9 11.766-4.5938 24.375-7.4531 37.5-8.5312 3.4688-0.23438 7.0312-0.375 10.641-0.375 31.359 0 60.188 10.688 83.109 28.641 15.609 12.281 28.5 27.938 37.5 45.891 9.0938 18.094 14.203 38.625 14.203 60.281s-5.1094 42.141-14.203 60.281c-9 17.906-21.891 33.562-37.5 45.844-22.922 17.953-51.75 28.734-83.109 28.734-3.6094 0-7.1719-0.14062-10.641-0.46875-13.125-1.0312-25.734-3.9375-37.5-8.4375zm0-210.52c-29.391 16.734-49.219 48.375-49.219 84.562 0 36.234 19.828 67.781 49.219 84.562 11.297 6.4219 23.953 10.688 37.5 12.141 3.4688 0.42187 7.0312 0.60937 10.641 0.60937 35.156 0 66-18.703 83.109-46.641 9-14.766 14.203-32.156 14.203-50.672 0-18.562-5.2031-35.859-14.203-50.672-17.109-27.984-47.953-46.688-83.109-46.688-3.6094 0-7.1719 0.23437-10.641 0.60937-13.547 1.4531-26.203 5.7188-37.5 12.188z" fill-rule="evenodd"/>
</svg>
