<?xml version="1.0" encoding="UTF-8"?>
<svg width="1200pt" height="1200pt" version="1.1" viewBox="0 0 1200 1200" xmlns="http://www.w3.org/2000/svg">
 <path d="m775.11 807.79v-60.984c0-7.3125-5.9297-13.238-13.238-13.238h-61c-4.0625-18.445-16.352-34.008-33.348-42.246-16.996-8.2383-36.828-8.2383-53.82 0-16.996 8.2383-29.285 23.801-33.348 42.246h-47.734v-47.773c18.441-4.0625 34.008-16.352 42.246-33.348 8.2344-16.996 8.2344-36.828 0-53.82-8.2383-16.996-23.805-29.285-42.246-33.348v-60.973c0-7.3203-5.9336-13.254-13.254-13.254h-69.055c-4.0508-18.453-16.336-34.039-33.336-42.285-17.004-8.2461-36.844-8.2461-53.848 0-17 8.2461-29.285 23.832-33.336 42.285h-52.949c-7.3164 0.007813-13.238 5.9375-13.238 13.254v303.48c-18.449 4.0586-34.02 16.344-42.262 33.34-8.2422 16.996-8.2422 36.832 0 53.828 8.2422 16.996 23.812 29.281 42.262 33.336v61.012c0 7.3125 5.9258 13.238 13.238 13.238h303.51c4.0469 18.457 16.332 34.039 33.336 42.285 17 8.2461 36.844 8.2461 53.844 0 17.004-8.2461 29.285-23.828 33.336-42.285h61c7.3086 0 13.238-5.9258 13.238-13.238v-61.012c18.461-4.0391 34.047-16.324 42.297-33.324 8.25-17.004 8.25-36.852 0-53.852-8.25-17.004-23.836-29.285-42.297-33.328zm-485.05-290.25h51.523l-0.003907 0.003907c7.3125 0 13.246-5.9258 13.25-13.238 0-12.578 6.7109-24.199 17.605-30.488 10.891-6.2891 24.309-6.2891 35.203 0 10.891 6.2891 17.602 17.91 17.602 30.488 0.007812 7.3086 5.9297 13.23 13.238 13.238h67.629v59.559-0.003906c0.007813 7.3086 5.9297 13.23 13.238 13.238 12.422 0.23437 23.797 7 29.941 17.797 6.1445 10.797 6.1445 24.031 0 34.832-6.1445 10.797-17.52 17.559-29.941 17.793-7.3047 0-13.23 5.918-13.238 13.227v59.582h-55.793c-4.0664-18.445-16.352-34.008-33.348-42.246-16.996-8.2383-36.828-8.2383-53.824 0-16.992 8.2383-29.281 23.801-33.348 42.246h-39.711zm-13.215 385.72c-12.422-0.23437-23.801-6.9961-29.945-17.793-6.1406-10.797-6.1406-24.035 0-34.832 6.1445-10.797 17.523-17.559 29.945-17.793 7.3086 0 13.238-5.9297 13.238-13.238v-59.559h51.523c7.3125 0 13.242-5.9258 13.25-13.238 0-12.578 6.7109-24.199 17.602-30.488 10.891-6.2891 24.312-6.2891 35.203 0 10.895 6.2891 17.602 17.91 17.602 30.488 0 7.3125 5.9297 13.238 13.238 13.238h67.629v47.746c-18.461 4.043-34.047 16.324-42.297 33.328-8.25 17-8.25 36.848 0 53.852 8.25 17 23.836 29.285 42.297 33.324v47.773h-216v-59.57c0-3.5195-1.3984-6.8945-3.8945-9.3789-2.4922-2.4844-5.8711-3.8711-9.3906-3.8594zm485.05 0c-7.3125 0-13.238 5.9297-13.238 13.238v59.57h-59.594c-3.5195-0.003906-6.8906 1.3867-9.3828 3.8672-2.4883 2.4844-3.8906 5.8555-3.8945 9.3711 0 12.578-6.7109 24.199-17.602 30.488-10.891 6.2891-24.312 6.2891-35.203 0-10.895-6.2891-17.602-17.91-17.602-30.488 0-7.3086-5.9297-13.238-13.238-13.238h-59.52v-59.57c-0.007812-7.3125-5.9375-13.238-13.254-13.238-9.4531 0.17969-18.582-3.4492-25.332-10.074-6.7461-6.6211-10.551-15.68-10.551-25.137 0-9.4531 3.8047-18.512 10.551-25.137 6.75-6.6211 15.879-10.25 25.332-10.07 7.3164 0 13.246-5.9258 13.254-13.238v-59.559h59.543c7.3125 0 13.238-5.9258 13.238-13.238 0-12.578 6.7109-24.199 17.602-30.488 10.895-6.2891 24.312-6.2891 35.203 0 10.895 6.2891 17.605 17.91 17.605 30.488 0.003906 7.3125 5.9375 13.238 13.25 13.238h59.57v59.559c0 7.3086 5.9258 13.238 13.238 13.238 9.4531-0.17969 18.582 3.4492 25.332 10.07 6.7461 6.625 10.551 15.684 10.551 25.137 0 9.457-3.8047 18.516-10.551 25.137-6.75 6.625-15.879 10.254-25.332 10.074zm-20.906-688.21c-47.828 1.207-93.363 20.746-127.2 54.574-33.832 33.832-53.371 79.367-54.582 127.2-1.1016 35.77 8.8516 71.008 28.5 100.91 19.648 29.906 48.043 53.027 81.309 66.215v11.609c-5.2617 1.8281-8.8047 6.7695-8.8438 12.34v39.082c0 7.3125 5.9297 13.238 13.238 13.238h13.238c3.9453 16.379 15.07 30.102 30.277 37.348 15.207 7.25 32.871 7.25 48.078 0 15.207-7.2461 26.332-20.969 30.277-37.348h13.137c7.3086 0 13.238-5.9258 13.238-13.238v-39.082c-0.027344-5.543-3.5312-10.477-8.7539-12.328v-11.609c33.262-13.195 61.648-36.32 81.293-66.23 19.648-29.906 29.598-65.145 28.5-100.91-1.207-47.816-20.734-93.344-54.551-127.17-33.816-33.828-79.336-53.375-127.16-54.598zm54.238 386.1v12.633h-108.5v-12.633zm-54.238 55.441c-5.5117 0-10.914-1.5352-15.598-4.4375-4.6875-2.8984-8.4727-7.0508-10.926-11.984h52.938c-2.4492 4.918-6.2148 9.0547-10.879 11.957-4.6641 2.8984-10.043 4.4453-15.535 4.4648zm54.316-114.16c-5.2578 1.8867-8.7617 6.8672-8.7656 12.453v19.781h-90.949l0.003906-19.793c-0.003906-5.5898-3.5078-10.574-8.7695-12.469-30.383-9.9727-56.688-29.582-74.926-55.852-18.234-26.27-27.406-57.773-26.125-89.727 0-73.262 66.402-155.28 155.29-155.28 88.887 0 155.27 81.98 155.27 155.28 1.2773 31.961-7.9023 63.469-26.145 89.742-18.242 26.277-44.555 45.887-74.945 55.863zm-54.316-253.59v-0.003907c-28.504 0-55.848 11.32-76.004 31.477-20.16 20.152-31.488 47.492-31.488 76-0.003906 28.504 11.32 55.844 31.477 76.004s47.492 31.484 76 31.484c28.508 0.003906 55.848-11.32 76.004-31.477 20.156-20.16 31.484-47.496 31.484-76.004-0.035156-28.496-11.367-55.812-31.516-75.961-20.145-20.148-47.461-31.484-75.957-31.523zm0 188.49v-0.003907c-21.484 0.007813-42.094-8.5195-57.289-23.711-15.195-15.188-23.738-35.793-23.742-57.277-0.003907-21.484 8.5273-42.094 23.719-57.289 15.191-15.195 35.793-23.73 57.281-23.734 21.484 0 42.09 8.5312 57.285 23.723 15.191 15.191 23.73 35.801 23.73 57.285-0.023437 21.473-8.5625 42.059-23.746 57.246-15.18 15.184-35.766 23.73-57.238 23.758zm54.605-118.81 0.003906-0.003907c2.3086 2.6445 3.4727 6.1016 3.2383 9.6055-0.23828 3.5039-1.8594 6.7695-4.5039 9.0781l-59.18 51.309c-5.2461 4.5664-13.137 4.2852-18.051-0.64453l-30.102-30.125h0.003906c-2.4844-2.4844-3.8789-5.8516-3.875-9.3633 0-3.5117 1.3945-6.8789 3.8789-9.3633 5.1719-5.168 13.559-5.168 18.727 0.007813l21.371 21.473 49.82-43.227c2.6406-2.3125 6.0938-3.4805 9.5938-3.2461 3.5039 0.23438 6.7695 1.8516 9.0781 4.4961zm-67.855-173.68v-22.59c0-7.3242 5.9375-13.262 13.266-13.262 7.3242 0 13.262 5.9375 13.262 13.262v22.586c0 7.3242-5.9375 13.266-13.262 13.266-7.3281 0-13.266-5.9414-13.266-13.266zm105.78 21.246 11.367-19.566v-0.003906c3.793-6.0312 11.676-7.9805 17.84-4.4141 6.1641 3.5664 8.4023 11.375 5.0625 17.664l-11.367 19.566c-3.7617 6.1133-11.703 8.125-17.914 4.5352-6.2148-3.5898-8.4414-11.473-5.0273-17.785zm113.85 82.922-19.566 11.293c-2.0039 1.1719-4.2852 1.7852-6.6055 1.7812-5.9961 0.011719-11.25-4.0117-12.805-9.8047s0.97656-11.906 6.1719-14.902l19.566-11.293c6.3203-3.543 14.316-1.3477 17.941 4.9297 3.625 6.2734 1.5273 14.297-4.7031 17.996zm37.516 103.84v0.003906c-0.003906 7.3125-5.9375 13.234-13.25 13.234h-22.637c-7.3242 0-13.262-5.9375-13.262-13.262 0-7.3242 5.9375-13.262 13.262-13.262h22.586c3.5234 0 6.8984 1.3984 9.3828 3.8945 2.4883 2.4922 3.8789 5.8711 3.8672 9.3945zm-370.66-193.09c-1.7578-3.0391-2.2344-6.6523-1.3281-10.043 0.91016-3.3945 3.125-6.2852 6.168-8.043 6.3281-3.6602 14.43-1.4922 18.086 4.8359l11.305 19.566c3.6602 6.332 1.4961 14.43-4.8359 18.09-6.332 3.6602-14.43 1.4922-18.09-4.8398zm-84.418 71.168c3.6562-6.3281 11.746-8.5 18.078-4.8516l19.578 11.293c5.1953 2.9961 7.7266 9.1055 6.1758 14.895-1.5508 5.793-6.8008 9.8164-12.793 9.8125-2.3242 0.003907-4.6016-0.60937-6.6094-1.7812l-19.578-11.293c-3.043-1.75-5.2617-4.6406-6.1719-8.0312s-0.43359-7.0039 1.3203-10.043zm-32.652 121.92c0-7.3164 5.9258-13.246 13.238-13.254h22.574c7.3242 0 13.262 5.9414 13.262 13.266s-5.9375 13.262-13.262 13.262h-22.574c-3.5156 0-6.8906-1.3984-9.375-3.8906-2.4805-2.4883-3.8711-5.8672-3.8633-9.3828z"/>
</svg>
