<?xml version="1.0" encoding="UTF-8"?>
<svg width="1200pt" height="1200pt" version="1.1" viewBox="0 0 1200 1200" xmlns="http://www.w3.org/2000/svg">
 <path d="m1186.9 825.28c-4.5977-7.3086-11.219-13.32-19.535-17.375l-82.297-40.309 73.922-36.168c8.2422-4.0547 14.809-10.008 19.344-17.242 4.5352-7.3086 7.0312-15.828 7.0312-24.887s-2.4961-17.508-7.0312-24.816c-4.5352-7.3086-11.09-13.246-19.344-17.242l-247.77-121.24-13.391-6.5898v-134.61c11.062-3.0469 20.965-8.9141 28.871-16.824 11.832-11.832 19.199-28.262 19.199-46.32 0-18.121-7.3672-34.488-19.199-46.391-11.902-11.832-28.262-19.199-46.391-19.199-18.133 0-34.488 7.3672-46.391 19.199-11.832 11.902-19.199 28.262-19.199 46.391 0 18.047 7.3672 34.488 19.199 46.32 8.5195 8.5195 19.344 14.664 31.441 17.484v223.79h0.070313c0 5.9531 3.3125 11.699 9.0586 14.531l133.96 65.52-408.48 199.95-408.42-199.94 132.6-64.848c6.1562-2.3633 10.477-8.2578 10.477-15.215v-224.09c11.594-2.9414 21.938-8.9648 30.156-17.184 11.832-11.832 19.199-28.262 19.199-46.32 0-18.121-7.3672-34.488-19.199-46.391-11.902-11.832-28.262-19.199-46.391-19.199-18.133 0-34.488 7.3672-46.391 19.199-11.832 11.902-19.199 28.262-19.199 46.391 0 18.047 7.3672 34.488 19.199 46.32 8.2188 8.2188 18.574 14.242 30.156 17.184v134.29l-13.391 6.5508-247.8 121.24c-8.1836 3.9844-14.734 9.9375-19.273 17.242-4.5352 7.2969-7.0312 15.758-7.0312 24.816 0 9.0586 2.4961 17.578 7.0312 24.887 4.5352 7.2344 11.09 13.188 19.273 17.242l73.957 36.18-82.273 40.301c-8.3164 4.0547-14.941 10.078-19.547 17.375-4.5859 7.3711-7.0938 15.961-7.0938 25.156 0 9.1328 2.4961 17.711 7.1055 25.094 4.5977 7.2969 11.219 13.32 19.547 17.375l251.54 123.13 295.02 144.37c6.7578 3.3125 13.801 5.0039 20.762 5.0039 7.0312 0 14.062-1.6914 20.832-5.0039l295.02-144.37 251.53-123.14c8.3164-4.0547 14.941-10.078 19.535-17.375 4.5977-7.3672 7.1055-15.961 7.1055-25.094 0-9.1914-2.5078-17.781-7.1055-25.148zm-339.65-503.63c0-9.1328 3.6484-17.449 9.6719-23.398 5.9531-6.0234 14.27-9.7305 23.398-9.7305 9.1328 0 17.375 3.7188 23.398 9.7305 5.9531 5.9531 9.6719 14.27 9.6719 23.398 0 9.1328-3.7188 17.375-9.6719 23.398-6.0234 5.9531-14.27 9.6719-23.398 9.6719-9.1328 0-17.449-3.7188-23.398-9.6719-6.0234-6.0234-9.6719-14.266-9.6719-23.398zm-561.91 0c0-9.1328 3.6484-17.449 9.6719-23.398 5.9531-6.0234 14.27-9.7305 23.398-9.7305 9.1328 0 17.375 3.7188 23.398 9.7305 6.0234 5.9531 9.6719 14.27 9.6719 23.398 0 9.1328-3.6484 17.375-9.6719 23.398-6.0234 5.9531-14.27 9.6719-23.398 9.6719-9.1328 0-17.449-3.7188-23.398-9.6719-6.0234-6.0234-9.6719-14.266-9.6719-23.398zm-236.12 375.42c-1.3555-2.1602-2.1016-4.8008-2.1016-7.7773 0-2.9023 0.74219-5.543 2.1016-7.7031 1.4141-2.2305 3.4453-4.0547 6.0234-5.2812l246.95-120.9v43.754l-133.27 65.258c-4.8711 2.3633-8.7227 5.8789-11.426 10.211-2.6992 4.332-4.1875 9.3945-4.1875 14.676 0 5.3398 1.4883 10.414 4.1875 14.734 2.6992 4.332 6.5625 7.8477 11.426 10.211l418.89 205.02c3.9844 1.957 8.1133 2.9023 12.168 2.9023 4.1289 0 8.2422-0.94922 12.238-2.9023l418.89-205.03c4.8711-2.3633 8.7227-5.8789 11.426-10.211 2.6992-4.332 4.1875-9.3945 4.1875-14.734 0-5.2812-1.4883-10.344-4.1875-14.676-2.6992-4.332-6.5625-7.8477-11.426-10.211l-133.27-65.246v-43.754l246.95 120.9c2.5664 1.2109 4.5977 3.0469 6.0234 5.2812 1.3555 2.1602 2.0273 4.8008 2.0273 7.7031 0 2.9766-0.67188 5.6172-2.0273 7.7773-1.4141 2.1602-3.4453 3.9844-6.0234 5.2812l-247.77 121.24-290.63 142.27c-2.1016 1.0195-4.2617 1.4883-6.4219 1.4883-2.1602 0-4.2617-0.46875-6.3594-1.4883l-290.61-142.27-247.77-121.25c-2.5664-1.2852-4.5938-3.1094-6.0117-5.2695zm1110.1 161.34c-1.4141 2.2305-3.5156 4.1289-6.1562 5.4727l-251.53 123.07-295.03 144.43c-2.1602 1.0195-4.3906 1.5586-6.625 1.5586-2.2305 0-4.3906-0.53906-6.5625-1.5586l-295.02-144.43-251.53-123.07c-2.6406-1.3555-4.8008-3.2383-6.2148-5.4727-1.3555-2.2305-2.1016-5.0039-2.1016-7.9805 0-3.0469 0.74219-5.7461 2.1016-7.9805 1.4141-2.3047 3.5898-4.1875 6.2148-5.4727l104.91-51.348 137.03 67.031 290.63 142.27c6.6953 3.2539 13.656 4.9336 20.555 4.9336 6.9609 0 13.859-1.6914 20.629-4.9336l290.63-142.27 137-67.043 104.93 51.359c2.6406 1.2852 4.7266 3.1797 6.1562 5.4727 1.4141 2.2305 2.1602 4.9336 2.1602 7.9805 0 2.9766-0.74609 5.75-2.1719 7.9805zm-423.7-451.48c8.9297 0 16.223-7.2344 16.223-16.223v-184.48l66.254-53.508c10.945 8.1836 24.562 13.066 39.301 13.066 18.059 0 34.488-7.3672 46.32-19.199 11.902-11.902 19.199-28.262 19.199-46.379 0-18.121-7.3086-34.488-19.199-46.391-11.832-11.832-28.262-19.199-46.32-19.199-18.121 0-34.547 7.3672-46.391 19.199-11.902 11.902-19.199 28.262-19.199 46.391 0 9.7422 2.125 18.984 5.9414 27.289l-72.336 58.379c-3.9258 3.2383-6.0234 7.9062-6.0234 12.648h-0.070312v192.17c0.003906 9 7.3008 16.238 16.301 16.238zm98.387-330.12c5.9531-6.0234 14.195-9.6719 23.398-9.6719 9.1328 0 17.375 3.6484 23.398 9.6719 5.9531 5.9531 9.6719 14.27 9.6719 23.398 0 9.1328-3.7188 17.375-9.6719 23.398-6.0234 5.9531-14.27 9.6719-23.398 9.6719-9.1914 0-17.449-3.7188-23.398-9.6719-6.0234-6.0234-9.7305-14.27-9.7305-23.398-0.011719-9.1328 3.707-17.445 9.7305-23.398zm-114.68 595.52v-193.54c0-8.9883 7.3086-16.223 16.297-16.223 8.9297 0 16.223 7.2344 16.223 16.223v193.52c0 8.9297-7.3086 16.223-16.223 16.223-9 0.011719-16.297-7.2969-16.297-16.211zm-103.05-262.91v347.09c0 9-7.3086 16.297-16.297 16.297-8.9297 0-16.223-7.2969-16.223-16.297l-0.003907-347.09c0-9 7.3086-16.297 16.223-16.297 9.0039 0.003906 16.301 7.2969 16.301 16.297zm-135.58 142.74v120.16c0 8.9297-7.3086 16.223-16.297 16.223-8.9297 0-16.223-7.3086-16.223-16.223v-120.16c0-8.9297 7.3086-16.223 16.223-16.223 9 0 16.297 7.3047 16.297 16.223zm-138.07-386.38c14.746 0 28.332-4.8828 39.289-13.078l66.266 53.508v255.19c0 8.9883 7.3086 16.297 16.223 16.297 8.9883 0 16.297-7.3086 16.297-16.297l-0.003906-262.89h-0.070313c0-4.7266-2.1016-9.3945-6.0859-12.648l-72.289-58.391c3.8047-8.3047 5.9531-17.531 5.9531-27.277 0-18.121-7.3672-34.488-19.199-46.391-11.902-11.832-28.262-19.199-46.391-19.199-18.059 0-34.488 7.3672-46.32 19.199-11.902 11.902-19.199 28.262-19.199 46.391 0 18.121 7.3086 34.488 19.199 46.379 11.844 11.832 28.27 19.203 46.332 19.203zm-23.402-88.98c6.0234-6.0234 14.27-9.6719 23.398-9.6719 9.1328 0 17.449 3.6484 23.398 9.6719 6.0234 5.9531 9.7305 14.27 9.7305 23.398 0 9.1328-3.7188 17.375-9.7305 23.398-5.9531 5.9531-14.27 9.6719-23.398 9.6719-9.1328 0-17.375-3.7188-23.398-9.6719-5.9531-6.0234-9.6719-14.27-9.6719-23.398 0-9.1328 3.7227-17.445 9.6719-23.398zm264.53 117.18v119.34c0 8.9297 7.3086 16.223 16.223 16.223 8.9883 0 16.297-7.2969 16.297-16.223v-119.35c11.578-2.9531 21.926-8.9648 30.098-17.172 11.902-11.832 19.199-28.262 19.199-46.32 0-18.121-7.3086-34.559-19.199-46.391-11.832-11.902-28.262-19.199-46.391-19.199-18.059 0-34.488 7.2969-46.32 19.199-11.902 11.832-19.199 28.262-19.199 46.391 0 18.047 7.3086 34.488 19.199 46.32 8.1719 8.2188 18.527 14.242 30.094 17.184zm-7.1758-86.891c6.0234-6.0234 14.27-9.7305 23.398-9.7305 9.1914 0 17.449 3.7188 23.398 9.7305 6.0234 5.9531 9.7305 14.195 9.7305 23.398 0 9.1328-3.7188 17.375-9.7305 23.398-5.9531 5.9531-14.195 9.6719-23.398 9.6719-9.1328 0-17.375-3.7188-23.398-9.6719-5.9531-6.0234-9.6719-14.27-9.6719-23.398 0.011719-9.1914 3.7344-17.449 9.6719-23.398z"/>
</svg>
