<?xml version="1.0" encoding="UTF-8"?>
<svg width="1200pt" height="1200pt" version="1.1" viewBox="0 0 1200 1200" xmlns="http://www.w3.org/2000/svg">
 <path d="m236.27 808.27c-30.398 0-60.801-2.668-90.668-7.7344-7.1992-1.332-12.266-8.2656-10.934-15.465 1.332-7.1992 8.2656-12 15.465-10.934 62.133 10.668 127.46 9.6016 189.33-3.1992 7.1992-1.6016 14.398 3.1992 15.734 10.398 1.6016 7.1992-3.1992 14.398-10.398 15.734-35.195 7.4688-71.73 11.199-108.53 11.199zm248.8-63.73c-4.8008 0-9.332-2.3984-11.734-6.9336-3.4648-6.3984-1.0664-14.668 5.332-18.133 40.535-22.398 77.602-50.133 110.67-82.668 5.332-5.0664 13.602-5.0664 18.934 0 5.332 5.0664 5.0664 13.602 0 18.934-34.668 34.398-73.867 63.734-116.54 87.199-2.1289 1.0664-4.2656 1.6016-6.6641 1.6016zm-402.4-77.867c-7.1992 0-13.066-5.6016-13.332-12.801-0.53516-8.5352-0.53516-17.066-0.53516-25.602 0-125.6 44.801-247.2 125.87-342.67 80-94.398 191.2-157.87 312.54-178.93 7.1992-1.332 14.133 3.4648 15.465 10.934 1.332 7.4648-3.7344 14.133-10.934 15.465-241.34 41.605-416.27 249.87-416.27 495.2 0 8 0.26562 16.266 0.53516 24.266 0.26562 7.4648-5.332 13.602-12.801 13.867 0 0.26953-0.26562 0.26953-0.53125 0.26953zm606.66-127.2c-2.1328 0-4.2656-0.53516-6.3984-1.6016-6.3984-3.4648-8.8008-11.734-5.332-18.133 26.133-47.734 44.266-99.465 53.602-153.07 1.332-7.1992 8.2656-12 15.465-10.934 7.1992 1.332 12 8.2656 10.934 15.465-9.8672 56.535-29.066 110.67-56.535 161.07-2.3984 4.8047-6.9336 7.2031-11.734 7.2031zm59.469-309.07c-6.668 0-12.266-5.0664-13.332-11.734-3.1992-26.398-8.5352-52.801-15.734-78.133-30.398-7.4648-61.332-12.266-92.801-14.133h-0.80078c-7.1992 0-13.332-5.8672-13.332-13.066v-0.26562c0-3.7344 1.332-7.1992 4-9.8672s6.1328-4 9.8672-3.7344c36 1.8672 72 7.4648 106.93 16.801 4.5352 1.0664 8 4.5352 9.332 9.0664 8.8008 29.332 15.199 59.465 18.934 89.867 0.80078 7.1992-4.2656 13.867-11.734 14.934-0.26562 0-0.80078 0.26563-1.332 0.26563z"/>
 <path d="m875.2 1057.1c-74.668 0-147.2-15.199-214.93-45.602-6.668-2.9336-9.8672-10.934-6.668-17.602 3.1992-6.668 10.934-9.8672 17.602-6.668 64.535 28.801 133.07 43.199 204 43.199 8.2656 0 17.066-0.26562 25.867-0.80078 127.2-96 200-242.13 200-401.33 0-14.133-0.53516-28.535-1.8672-42.934-0.53516-7.4648 4.8008-13.867 12.266-14.398 7.4648-0.53516 13.867 4.8008 14.398 12.266 1.332 15.199 1.8672 30.668 1.8672 45.332 0 85.066-19.734 166.4-58.398 241.6-36.801 71.734-90.668 135.2-155.73 183.46-2.1328 1.6016-4.5352 2.3984-7.1992 2.668-10.664 0.53906-21.066 0.80469-31.199 0.80469zm30.668-14.398m-368.8-111.73c-3.1992 0-6.1328-1.0664-8.8008-3.1992-31.465-27.199-59.465-58.133-83.734-91.734-2.1328-2.9336-2.9336-6.668-2.1328-10.398 0.80078-3.7344 2.9336-6.668 6.1328-8.8008 34.133-20.801 35.734-56.266 22.398-82.398-13.332-25.867-43.199-45.066-79.734-29.332-3.4648 1.332-7.1992 1.332-10.668 0-3.4648-1.332-5.8672-4.2656-7.1992-8-9.0664-27.199-16.266-55.199-20.801-83.465-1.0664-7.1992 3.7344-14.133 10.934-15.199 7.1992-1.0664 14.133 3.7344 15.199 10.934 3.7344 22.398 8.8008 44.801 15.734 66.398 45.867-12.266 83.465 14.133 100.27 46.668 16.801 32.535 16.266 78.668-20.535 108.8 21.066 27.734 45.066 53.602 71.465 76.535 5.6016 4.8008 6.1328 13.332 1.332 18.668-2.3867 2.9219-6.1211 4.5234-9.8555 4.5234zm-177.07-423.2h-0.80078c-7.4648-0.53516-13.066-6.9336-12.535-14.133 1.332-22.398 4.2656-44.801 8.5352-66.934 1.332-7.1992 8.2656-12 15.734-10.668 7.1992 1.332 12 8.2656 10.668 15.734-4 20.801-6.668 42.133-8 63.465-0.53516 7.1992-6.4023 12.535-13.602 12.535zm717.33-58.402c-5.332 0-10.398-3.1992-12.266-8.2656-72.535-180.27-244.27-303.73-437.87-314.67h-0.80078c-7.1992 0-13.332-5.8672-13.332-13.066v-0.26562c0-3.7344 1.332-7.1992 4-9.8672 2.668-2.668 6.1328-4 9.8672-3.7344 204.54 10.934 386.4 141.07 462.67 331.46 2.668 6.9336-0.53516 14.668-7.4648 17.332-1.6016 0.80469-3.2031 1.0703-4.8047 1.0703zm-658.4-149.87c-2.1328 0-4.2656-0.53516-6.1328-1.6016-6.3984-3.4648-9.0664-11.465-5.6016-18.133 27.465-52 63.465-98.668 106.4-138.93 5.332-5.0664 13.867-4.8008 18.934 0.53516 5.0664 5.332 4.8008 13.867-0.53516 18.934-40.801 38.133-74.934 82.668-101.07 132-2.6641 4.5352-7.1953 7.1992-11.996 7.1992z"/>
 <path d="m598.13 1157.6c-55.465 0-110.13-8.5352-162.4-25.332-6.9336-2.3984-10.934-9.8672-8.5352-16.801 2.3984-6.9336 9.8672-10.934 16.801-8.5352 49.602 16 101.6 24 154.13 24 126.13 0 246.4-46.668 339.2-131.73-8.5352-67.734-30.668-132-65.332-190.93-3.7344-6.3984-1.6016-14.398 4.8008-18.398 6.3984-3.7344 14.668-1.6016 18.398 4.8008 37.867 64.266 61.332 134.13 69.602 208.27 0.53516 4.2656-1.0664 8.2656-4 11.199-98.668 92.535-227.47 143.47-362.67 143.47zm-264.53-72.801c-2.3984 0-4.8008-0.53516-6.9336-1.8672-105.07-62.934-185.6-160.8-226.93-275.46-2.3984-6.9336 1.0664-14.668 8-17.066 6.9336-2.3984 14.668 1.0664 17.066 8 39.199 109.07 115.73 201.87 215.46 261.6 6.3984 3.7344 8.2656 12 4.5352 18.398-2.1328 3.9961-6.668 6.3984-11.199 6.3984zm479.73-363.2c-3.4648 0-6.9336-1.332-9.6016-4.2656-26.934-28.266-57.066-53.602-89.602-74.934-6.1328-4-8-12.266-3.7344-18.398 4-6.1328 12.266-8 18.398-3.7344 34.398 22.398 66.133 49.066 94.398 78.934 5.0664 5.332 4.8008 13.867-0.53516 18.934-2.6562 2.1289-5.8555 3.4648-9.3242 3.4648zm-689.6-53.867c-4 0-8-1.8672-10.668-5.0664-4.5352-5.8672-3.4648-14.133 2.3984-18.668 54.934-42.398 116.8-73.332 183.46-91.465 7.1992-1.8672 14.398 2.1328 16.266 9.332 1.8672 7.1992-2.1328 14.398-9.332 16.266-63.465 17.332-121.87 46.668-174.13 86.934-2.3984 1.8672-5.332 2.668-7.9961 2.668zm459.46-86.934c-1.332 0-2.3984-0.26562-3.7344-0.53516-45.602-13.332-92.801-20-140.54-20-6.668 0-13.602 0.26562-20.266 0.26562-7.4648 0.26562-13.602-5.332-13.867-12.801-0.26562-7.4648 5.332-13.602 12.801-13.867 7.1992-0.26562 14.398-0.53516 21.332-0.53516 50.398 0 100.27 6.9336 148 21.066 6.9336 2.1328 11.199 9.6016 9.0664 16.535-1.8633 6.1367-7.1953 9.8711-12.797 9.8711z"/>
 <path d="m386.67 444.8c-49.332 0-89.602-40.266-89.602-89.602 0-49.332 40.266-89.602 89.602-89.602 49.332 0 89.602 40.266 89.602 89.602-0.003906 49.336-40.27 89.602-89.602 89.602zm0-152.54c-34.668 0-62.934 28.266-62.934 62.934s28.266 62.934 62.934 62.934 62.934-28.266 62.934-62.934c0-34.664-28.27-62.934-62.934-62.934z"/>
 <path d="m752.27 382.93c-49.332 0-89.602-40.266-89.602-89.602 0-49.332 40.266-89.602 89.602-89.602 49.332 0 89.602 40.266 89.602 89.602 0 49.336-40.266 89.602-89.602 89.602zm0-152.8c-34.668 0-62.934 28.266-62.934 62.934 0 34.668 28.266 62.934 62.934 62.934s62.934-28.266 62.934-62.934c0-34.668-28.266-62.934-62.934-62.934z"/>
 <path d="m654.67 683.73c-49.332 0-89.602-40.266-89.602-89.602 0-49.332 40.266-89.602 89.602-89.602 49.332 0 89.602 40.266 89.602 89.602-0.003906 49.602-40.27 89.602-89.602 89.602zm0-152.54c-34.668 0-62.934 28.266-62.934 62.934 0 34.668 28.266 62.934 62.934 62.934s62.934-28.266 62.934-62.934c0-34.668-28.27-62.934-62.934-62.934z"/>
 <path d="m415.73 852.54c-49.332 0-89.602-40.266-89.602-89.602 0-49.332 40.266-89.602 89.602-89.602 49.332 0 89.602 40.266 89.602 89.602-0.003907 49.332-40.27 89.602-89.602 89.602zm0-152.54c-34.668 0-62.934 28.266-62.934 62.934 0 34.668 28.266 62.934 62.934 62.934s62.934-28.266 62.934-62.934c0-34.668-28.27-62.934-62.934-62.934z"/>
 <path d="m359.73 625.07c-39.734 0-72-32.266-72-72s32.266-72 72-72 72 32.266 72 72-32.535 72-72 72zm0-117.33c-25.066 0-45.332 20.266-45.332 45.332s20.266 45.332 45.332 45.332 45.332-20.266 45.332-45.332c-0.26562-24.801-20.531-45.332-45.332-45.332z"/>
 <path d="m845.33 829.07c-39.734 0-72-32.266-72-72s32.266-72 72-72 72 32.266 72 72-32.531 72-72 72zm0-117.07c-25.066 0-45.332 20.266-45.332 45.332 0 25.066 20.266 45.332 45.332 45.332 25.066 0 45.332-20.266 45.332-45.332 0.003907-25.066-20.531-45.332-45.332-45.332z"/>
 <path d="m598.4 1052.8c-49.332 0-89.602-40.266-89.602-89.602 0-49.332 40.266-89.602 89.602-89.602 49.332 0 89.602 40.266 89.602 89.602 0 49.336-40.266 89.602-89.602 89.602zm0-152.54c-34.668 0-62.934 28.266-62.934 62.934s28.266 62.934 62.934 62.934c34.668 0 62.934-28.266 62.934-62.934 0-34.664-28.266-62.934-62.934-62.934z"/>
 <path d="m101.07 817.07c-49.332 0-89.602-40.266-89.602-89.602 0-49.332 40.266-89.602 89.602-89.602 49.332 0 89.602 40.266 89.602 89.602 0 49.336-40.27 89.602-89.602 89.602zm0-152.8c-34.668 0-62.934 28.266-62.934 62.934s28.266 62.934 62.934 62.934c34.668 0 62.934-28.266 62.934-62.934 0-34.664-28.266-62.934-62.934-62.934z"/>
 <path d="m1100.3 598.4c-49.332 0-89.602-40.266-89.602-89.602 0-49.332 40.266-89.602 89.602-89.602 49.332 0 89.602 40.266 89.602 89.602s-40 89.602-89.602 89.602zm0-152.8c-34.668 0-62.934 28.266-62.934 62.934 0 34.668 28.266 62.934 62.934 62.934s62.934-28.266 62.934-62.934c0-34.668-28-62.934-62.934-62.934z"/>
 <path d="m567.73 185.07c-39.734 0-72-32.266-72-72s32.266-72 72-72 72 32.266 72 72-32.535 72-72 72zm0-117.07c-25.066 0-45.332 20.266-45.332 45.332 0 25.066 20.266 45.332 45.332 45.332s45.332-20.266 45.332-45.332c-0.26562-25.066-20.531-45.332-45.332-45.332z"/>
 <path d="m389.07 1162.7c-39.734 0-72-32.266-72-72s32.266-72 72-72 72 32.266 72 72c0 39.73-32.531 72-72 72zm0-117.07c-25.066 0-45.332 20.266-45.332 45.332s20.266 45.332 45.332 45.332 45.332-20.266 45.332-45.332c-0.26563-25.066-20.531-45.332-45.332-45.332z"/>
</svg>
