<?xml version="1.0" encoding="UTF-8"?>
<svg width="1200pt" height="1200pt" version="1.1" viewBox="0 0 1200 1200" xmlns="http://www.w3.org/2000/svg">
 <path d="m1071 488.29c0-4.875-2.1289-9.5156-5.8281-12.688l-93.539-80.203v-136.92c0-26.328-21.418-47.742-47.742-47.742h-166.51c-0.16016-0.14844-0.26953-0.32031-0.44141-0.45312l-146.18-124.31c-6.2695-5.3125-15.465-5.2891-21.711 0.050782l-145.42 124.71h-172.38c-26.328 0-47.742 21.418-47.742 47.742v141l-88.789 76.141c-3.6992 3.1719-5.8281 7.8125-5.8281 12.688 0 0.18359 0.050782 0.36719 0.0625 0.55078v585.55c0 24.051 19.566 43.617 43.605 43.617l854.89-0.003907c24.051 0 43.605-19.566 43.605-43.617v-586.11zm-600.46 300.62-308.17 264.25v-528.48zm25.664 22.016 92.867 79.629c3.1211 2.6797 7.0039 4.0273 10.875 4.0273s7.75-1.3477 10.875-4.0273l92.867-79.629 319.14 273.65h-845.75zm233.16-22.004 308.29-264.34v528.69zm299.27-300.64-57 48.871v-97.738zm-428.63-367.6 105.89 90.051-210.91-0.003906zm-328.74 123.46h652.64c7.8984 0 14.328 6.4297 14.328 14.328v141.37c-0.35547 1.9453-0.34375 3.918 0 5.8672v160.11l-338.28 290.03-343.02-294.12-0.003907-303.26c0.015626-7.9102 6.4297-14.324 14.328-14.324zm-47.73 199.34v89.598l-52.25-44.793zm374.06 241.73c34.273 0 68.02-8.9375 97.605-25.848 8.0078-4.5781 10.789-14.793 6.207-22.801-4.5938-8.0078-14.793-10.801-22.801-6.207-24.539 14.031-52.555 21.453-81.012 21.453-90.172 0-163.52-73.359-163.52-163.52 0-90.16 73.359-163.52 163.52-163.52 90.16 0 163.51 73.359 163.51 163.52 0 57.023-25.836 78.648-43.199 79.273-13.199 0.58594-22.945-10.027-24.344-26.828v-49.594c0.023438-0.95703 0.14844-1.8867 0.14844-2.8516 0-0.96875-0.12109-1.8984-0.14844-2.8516v-76.359c0-9.2344-7.4805-16.715-16.715-16.715-9.2344 0-16.715 7.4805-16.715 16.715v6.3906c-16.824-14.473-38.656-23.289-62.547-23.289-52.996 0-96.109 43.113-96.109 96.109 0 52.996 43.113 96.109 96.109 96.109 25.324 0 48.32-9.918 65.496-25.973 7.7773 26.266 29.535 43.492 56.008 42.539 36.332-1.3086 75.418-37.113 75.418-112.66 0-108.59-88.336-196.93-196.93-196.93-108.6 0-196.93 88.324-196.93 196.91 0 108.59 88.348 196.93 196.95 196.93zm0-134.24c-34.578 0-62.695-28.125-62.695-62.695 0-34.566 28.125-62.695 62.695-62.695 33.602 0 61.039 26.598 62.547 59.84v5.707c-1.5078 33.246-28.938 59.844-62.547 59.844z"/>
</svg>
