<?xml version="1.0" encoding="UTF-8"?>
<svg width="1200pt" height="1200pt" version="1.1" viewBox="0 0 1200 1200" xmlns="http://www.w3.org/2000/svg">
 <path d="m1031.5 704.16-60.516-23.203v-596.58c0-10.359-8.3906-18.75-18.75-18.75h-300.74c-10.359 0-18.75 8.3906-18.75 18.75v93.141l-121.5-56.109c-5.0625-2.0625-10.688-2.1094-15.703 0l-328.18 151.5c-6.6562 3.0938-10.875 9.7031-10.875 17.016v74.672c-0.28125 14.203 16.031 23.297 28.219 16.359 0 0.046875 0.1875 455.95 0.14062 456l0.09375 230.68c0 9.1875 6.7031 17.062 15.797 18.516l299.76 47.953c1.9688 0.32813 3.9375 0.32813 5.9531 0l298.26-47.719h220.13c10.359 0 18.75-8.3906 18.75-18.75v-345.98c0-7.7812-4.7812-14.719-12.047-17.484zm-361.22-601.03h263.26v563.44l-111.42-42.75 0.09375-242.81c12.047 6.9375 28.594-2.2031 28.172-16.359v-74.672c0-7.3125-4.2656-13.969-10.875-17.016l-169.18-78.094v-91.734zm142.6 198.84v34.266c-0.75-0.42188-290.68-121.4-290.68-121.4v-47.062zm-590.63 281.44 262.4-47.672v94.828l-262.4 38.484-0.046875-85.641zm562.36-38.109-262.45-47.672v-109.41l262.45 70.969-0.046876 86.156zm-262.45-9.5625 262.4 47.672c-0.23438 20.438 0.14062 65.672-0.046875 85.641 0 0-262.4-38.484-262.4-38.484v-94.828zm262.5-115.41-262.5-70.969v-93.844l262.5 109.83zm-300 77.25-262.45 47.672-0.046876-86.156 262.45-70.969v109.41zm-262.36 209.34 262.36-38.484v130.78l-262.36 16.594-0.046875-108.89zm299.86-38.438 262.36 38.484-0.046875 108.89-262.31-16.219zm-37.5-500.72v47.062s-289.92 120.98-290.68 121.45v-34.266l290.68-134.21zm0 87.75v93.797l-262.45 70.969v-54.938l262.5-109.83zm-262.31 597.89 262.31-16.594v256.82l-65.344-10.453v-146.21c0-10.359-8.3906-18.75-18.75-18.75h-97.828c-10.359 0-18.75 8.3906-18.75 18.75v124.55l-61.594-9.8438zm159.52 223.78-60.328-9.6562v-111.8h60.328zm140.29-240 262.31 16.219-0.09375 198.28-65.016 10.406v-125.11c0-10.359-8.3906-18.75-18.75-18.75h-97.828c-10.359 0-18.75 8.3906-18.75 18.75v146.76l-61.922 9.8906v-256.45zm159.74 230.9-60.328 9.6562v-122.02h60.328zm324.14-19.172h-184.13l0.14062-384.94 183.98 70.594z"/>
</svg>
