<?xml version="1.0" encoding="UTF-8"?>
<svg width="1200pt" height="1200pt" version="1.1" viewBox="0 0 1200 1200" xmlns="http://www.w3.org/2000/svg">
 <path d="m1140 260h-20v-40c0-10.609-4.2148-20.781-11.715-28.285-7.5039-7.5-17.676-11.715-28.285-11.715h-197.24c8.7734-28.438 3.4414-59.352-14.348-83.207-17.789-23.859-45.898-37.789-75.652-37.492-2.2617 0-4.4805 0-6.6992 0.26172l-0.003906-0.003906c-17.297-34.031-51.152-56.523-89.23-59.273-38.082-2.75-74.816 14.641-96.828 45.836-22.016-31.168-58.734-48.535-96.793-45.785-38.059 2.75-71.902 25.219-89.207 59.223-2.2188-0.17969-4.4414-0.26172-6.6992-0.26172v0.003906c-29.77-0.31641-57.895 13.605-75.699 37.465-17.801 23.859-23.141 54.789-14.363 83.234h-197.24c-10.609 0-20.781 4.2148-28.285 11.715-7.5 7.5039-11.715 17.676-11.715 28.285v40h-20c-15.914 0-31.176 6.3203-42.426 17.574-11.254 11.25-17.574 26.512-17.574 42.426v740c0 15.914 6.3203 31.176 17.574 42.426 11.25 11.254 26.512 17.574 42.426 17.574h426.82c11.074 31.43 34.719 56.84 65.273 70.145 30.551 13.305 65.262 13.305 95.812 0 30.555-13.305 54.199-38.715 65.273-70.145h426.82c15.914 0 31.176-6.3203 42.426-17.574 11.254-11.25 17.574-26.512 17.574-42.426v-740c0-15.914-6.3203-31.176-17.574-42.426-11.25-11.254-26.512-17.574-42.426-17.574zm-520 598.5c33.895 34.559 83.379 48.902 130.5 37.832 47.125-11.074 85.043-45.953 100-91.992 26.805-7.7188 50.488-23.699 67.676-45.664 17.188-21.969 27.004-48.801 28.043-76.676 21.992-9.7227 40.695-25.602 53.855-45.727 13.156-20.125 20.203-43.629 20.285-67.672 0.12109-31.168-11.645-61.207-32.898-84 13.781-22.629 19.926-49.082 17.531-75.465-2.3945-26.387-13.203-51.301-30.832-71.078 1.1367-7.1289 1.707-14.34 1.6992-21.559-0.007813-36.047-14.078-70.668-39.219-96.5h143.36v780h-360c-37.688 0.011719-73.762 15.289-100 42.34zm68.961-818.5c14.621-0.027344 28.871 4.6133 40.676 13.246 11.801 8.6328 20.539 20.809 24.941 34.754 1.5586 4.8789 4.9297 8.9727 9.418 11.438 4.4883 2.4688 9.75 3.1211 14.703 1.8242 16.262-4.3906 33.637-0.95703 47.008 9.2852 13.367 10.246 21.203 26.133 21.191 42.973 0.03125 11.961-3.9492 23.586-11.297 33.02-2.9453 3.7461-4.4531 8.418-4.2578 13.18 0.19922 4.7578 2.0859 9.2891 5.3242 12.781 3.2422 3.4883 7.6211 5.7109 12.352 6.2617 23.961 2.8203 46.051 14.352 62.062 32.398s24.832 41.352 24.777 65.48c0.011719 7.8203-0.93359 15.609-2.8203 23.199-0.86328 3.4844-0.77344 7.1367 0.26172 10.578 1.0352 3.4375 2.9766 6.5312 5.6211 8.9609 16.984 15.75 26.621 37.879 26.578 61.043 0.12891 19.801-6.9102 38.98-19.82 54-3.5352 4.1445-5.2266 9.5508-4.6836 14.973 0.54297 5.4219 3.2773 10.387 7.5625 13.746 20.164 15.746 31.902 39.938 31.801 65.52-0.046875 18.051-5.9062 35.609-16.715 50.07-10.809 14.457-25.984 25.051-43.285 30.211-4.3516 1.2773-8.1367 3.9961-10.738 7.7109-2.6016 3.7148-3.8633 8.2031-3.582 12.727 1.7773 23.047-5.0352 45.938-19.125 64.258-14.09 18.324-34.465 30.785-57.195 34.984-3.6523 0.83984-6.9961 2.6875-9.6484 5.3398-2.6523 2.6484-4.5039 5.9883-5.3516 9.6406-7.4141 31.668-29.965 57.645-60.273 69.441-30.312 11.797-64.488 7.8984-91.363-10.426-26.875-18.32-42.988-48.711-43.082-81.238v-652.42c0.019531-18.285 7.293-35.812 20.223-48.738 12.926-12.93 30.453-20.203 48.738-20.223zm-324.56 146.46c-7.3477-9.4375-11.328-21.062-11.297-33.02-0.011718-16.844 7.8242-32.73 21.191-42.973 13.371-10.246 30.746-13.68 47.008-9.2891 4.9414 1.3008 10.195 0.66016 14.684-1.7891 4.4844-2.4531 7.8594-6.5273 9.4375-11.391 6.7148-21.062 23.129-37.621 44.133-44.527 21-6.9023 44.039-3.3164 61.945 9.6484 17.902 12.965 28.504 33.73 28.5 55.84v652.42c-0.019531 32.582-16.125 63.055-43.035 81.422-26.91 18.371-61.152 22.27-91.504 10.422-30.352-11.852-52.895-37.918-60.242-69.664-0.84375-3.6484-2.6992-6.9922-5.3516-9.6406-2.6523-2.6484-5.9961-4.4961-9.6484-5.3398-22.711-4.2188-43.059-16.688-57.129-35.008-14.07-18.32-20.871-41.199-19.09-64.23 0.28516-4.5273-0.98047-9.0117-3.582-12.727-2.6016-3.7148-6.3867-6.4336-10.738-7.7148-17.301-5.1562-32.477-15.75-43.285-30.211-10.805-14.457-16.668-32.016-16.715-50.066-0.10156-25.582 11.641-49.773 31.801-65.52 4.2891-3.3633 7.0195-8.3281 7.5625-13.746 0.54297-5.4219-1.1484-10.832-4.6836-14.977-12.91-15.016-19.949-34.195-19.82-54-0.042968-23.164 9.5938-45.293 26.582-61.039 2.6445-2.4297 4.582-5.5273 5.6172-8.9648 1.0352-3.4375 1.125-7.0898 0.26172-10.574-1.8828-7.5898-2.832-15.383-2.8203-23.199-0.050782-24.129 8.7656-47.434 24.777-65.48s38.102-29.578 62.062-32.402c4.7305-0.54688 9.1094-2.7695 12.352-6.2578 3.2383-3.4922 5.1289-8.0234 5.3242-12.785 0.19531-4.7578-1.3125-9.4297-4.2539-13.176zm-244.4 33.539h143.36c-25.156 25.848-39.227 60.492-39.219 96.559-0.007813 7.2227 0.5625 14.43 1.6992 21.562-17.629 19.773-28.438 44.691-30.832 71.074-2.3945 26.383 3.75 52.84 17.531 75.465-21.254 22.793-33.02 52.832-32.898 84 0.082031 24.043 7.1289 47.547 20.285 67.672 13.16 20.125 31.863 36.008 53.855 45.727 1.0469 27.871 10.863 54.699 28.051 76.664s40.867 37.941 67.668 45.656c14.969 46.031 52.891 80.902 100.01 91.965 47.121 11.066 96.598-3.2852 130.49-37.844v183.82c-26.25-27.035-62.32-42.301-100-42.32h-360zm1040 840c0 5.3047-2.1055 10.391-5.8594 14.141-3.75 3.7539-8.8359 5.8594-14.141 5.8594h-442c-4.6094 0-9.0781 1.5898-12.652 4.5078-3.5703 2.9141-6.0273 6.9766-6.9492 11.492-4.9336 24.301-20.855 44.938-43.109 55.879-22.254 10.938-48.324 10.938-70.578 0-22.254-10.941-38.176-31.578-43.109-55.879-0.92187-4.5156-3.3789-8.5781-6.9492-11.492-3.5742-2.918-8.043-4.5078-12.652-4.5078h-442c-5.3047 0-10.391-2.1055-14.141-5.8594-3.7539-3.75-5.8594-8.8359-5.8594-14.141v-740c0-5.3047 2.1055-10.391 5.8594-14.141 3.75-3.7539 8.8359-5.8594 14.141-5.8594h20v700c0 10.609 4.2148 20.781 11.715 28.285 7.5039 7.5 17.676 11.715 28.285 11.715h360c19.688-0.007812 38.941 5.8086 55.336 16.711 16.391 10.902 29.199 26.41 36.805 44.57 2.9883 7.4609 8.8438 13.41 16.262 16.516 7.4141 3.1055 15.762 3.1055 23.176 0s13.273-9.0547 16.262-16.516c7.6094-18.164 20.418-33.672 36.812-44.578 16.398-10.902 35.656-16.715 55.348-16.703h360c10.609 0 20.781-4.2148 28.285-11.715 7.5-7.5039 11.715-17.676 11.715-28.285v-700h20c5.3047 0 10.391 2.1055 14.141 5.8594 3.7539 3.75 5.8594 8.8359 5.8594 14.141z"/>
 <path d="m340 620c0 5.3047 2.1055 10.391 5.8594 14.141 3.75 3.7539 8.8359 5.8594 14.141 5.8594 15.914 0 31.176 6.3203 42.426 17.574 11.254 11.25 17.574 26.512 17.574 42.426 0 7.1445 3.8125 13.746 10 17.32 6.1875 3.5742 13.812 3.5742 20 0 6.1875-3.5742 10-10.176 10-17.32 0.007812-19.977-6.0078-39.492-17.262-56 5.3828-2.6055 11.281-3.9727 17.262-4 7.1445 0 13.746-3.8125 17.32-10 3.5742-6.1875 3.5742-13.812 0-20-3.5742-6.1875-10.176-10-17.32-10-16.953 0.023438-33.457 5.4453-47.121 15.48-15.809-10.055-34.145-15.426-52.879-15.48-5.3047 0-10.391 2.1055-14.141 5.8594-3.7539 3.75-5.8594 8.8359-5.8594 14.141z"/>
 <path d="m400 460c10.609 0 20.781 4.2148 28.285 11.715 7.5 7.5039 11.715 17.676 11.715 28.285 0 7.1445 3.8125 13.746 10 17.32 6.1875 3.5742 13.812 3.5742 20 0 6.1875-3.5742 10-10.176 10-17.32 0-21.219-8.4297-41.566-23.43-56.57-15.004-15-35.352-23.43-56.57-23.43-7.1445 0-13.746 3.8125-17.32 10-3.5742 6.1875-3.5742 13.812 0 20 3.5742 6.1875 10.176 10 17.32 10z"/>
 <path d="m420 260c5.9805 0.027344 11.879 1.3945 17.262 4-11.254 16.508-17.27 36.023-17.262 56 0 7.1445 3.8125 13.746 10 17.32 6.1875 3.5742 13.812 3.5742 20 0 6.1875-3.5742 10-10.176 10-17.32 0-15.914 6.3203-31.176 17.574-42.426 11.25-11.254 26.512-17.574 42.426-17.574 7.1445 0 13.746-3.8125 17.32-10 3.5742-6.1875 3.5742-13.812 0-20-3.5742-6.1875-10.176-10-17.32-10-18.742 0.058594-37.082 5.4258-52.898 15.48-13.656-10.035-30.156-15.461-47.102-15.48-7.1445 0-13.746 3.8125-17.32 10-3.5742 6.1875-3.5742 13.812 0 20 3.5742 6.1875 10.176 10 17.32 10z"/>
 <path d="m720 500c0 7.1445 3.8125 13.746 10 17.32 6.1875 3.5742 13.812 3.5742 20 0 6.1875-3.5742 10-10.176 10-17.32 0-10.609 4.2148-20.781 11.715-28.285 7.5039-7.5 17.676-11.715 28.285-11.715 7.1445 0 13.746-3.8125 17.32-10 3.5742-6.1875 3.5742-13.812 0-20-3.5742-6.1875-10.176-10-17.32-10-21.219 0-41.566 8.4297-56.57 23.43-15 15.004-23.43 35.352-23.43 56.57z"/>
 <path d="m740 600c-7.1445 0-13.746 3.8125-17.32 10-3.5742 6.1875-3.5742 13.812 0 20 3.5742 6.1875 10.176 10 17.32 10 5.9805 0.027344 11.879 1.3945 17.262 4-11.254 16.508-17.27 36.023-17.262 56 0 7.1445 3.8125 13.746 10 17.32 6.1875 3.5742 13.812 3.5742 20 0 6.1875-3.5742 10-10.176 10-17.32 0-15.914 6.3203-31.176 17.574-42.426 11.25-11.254 26.512-17.574 42.426-17.574 7.1445 0 13.746-3.8125 17.32-10 3.5742-6.1875 3.5742-13.812 0-20-3.5742-6.1875-10.176-10-17.32-10-18.734 0.054688-37.07 5.4258-52.879 15.48-13.664-10.035-30.168-15.457-47.121-15.48z"/>
 <path d="m680 260c15.914 0 31.176 6.3203 42.426 17.574 11.254 11.25 17.574 26.512 17.574 42.426 0 7.1445 3.8125 13.746 10 17.32 6.1875 3.5742 13.812 3.5742 20 0 6.1875-3.5742 10-10.176 10-17.32 0.007812-19.977-6.0078-39.492-17.262-56 5.3828-2.6055 11.281-3.9727 17.262-4 7.1445 0 13.746-3.8125 17.32-10 3.5742-6.1875 3.5742-13.812 0-20-3.5742-6.1875-10.176-10-17.32-10-16.945 0.019531-33.445 5.4453-47.102 15.48-15.816-10.055-34.156-15.422-52.898-15.48-7.1445 0-13.746 3.8125-17.32 10-3.5742 6.1875-3.5742 13.812 0 20 3.5742 6.1875 10.176 10 17.32 10z"/>
</svg>
